PathFileType	4	(X/Y/Z)	C:\Users\Basilio\Documents\Thesis Gigler\squatting_fais\c3dfiles\073\SLS_front_pre5\markers_experimental.trc
DataRate	CameraRate	NumFrames	NumMarkers	Units	OrigDataRate	OrigDataStartFrame	OrigNumFrames
200.000000	200.000000	4	61	mm	200.000000	0	1279
Frame#	Time	FHD			LBHD			RBHD			C7			T10			CLAV			LSHO			LUUPA			LMUPA			LDUPA			LLEP			LMEP			LRAD			LUL			LRFIN			RSHO			RUPA1			RMUPA			RDUPA			RLEP			RMEP			RUL			RUFIN			LASI			RASI			USACR			LSACR			RSACR			LTHI1			LTHI2			LTHI3			LTHI4			LLFC			LMFC			LTIB1			LTIB2			LTIB3			LTIB4			LLMAL			LMMAL			LHEE			LMT1			LMT2			LMT5			RTHI			RTHI2			RTHI3			RTHI4			RLFC			RMFC			RTIB1			RTIB2			RTIB3			RTIB4			RLMAL			RMMAL			RHEE			RMT1			RMT2			RMT5			RRAD			
		X1	Y1	Z1	X2	Y2	Z2	X3	Y3	Z3	X4	Y4	Z4	X5	Y5	Z5	X6	Y6	Z6	X7	Y7	Z7	X8	Y8	Z8	X9	Y9	Z9	X10	Y10	Z10	X11	Y11	Z11	X12	Y12	Z12	X13	Y13	Z13	X14	Y14	Z14	X15	Y15	Z15	X16	Y16	Z16	X17	Y17	Z17	X18	Y18	Z18	X19	Y19	Z19	X20	Y20	Z20	X21	Y21	Z21	X22	Y22	Z22	X23	Y23	Z23	X24	Y24	Z24	X25	Y25	Z25	X26	Y26	Z26	X27	Y27	Z27	X28	Y28	Z28	X29	Y29	Z29	X30	Y30	Z30	X31	Y31	Z31	X32	Y32	Z32	X33	Y33	Z33	X34	Y34	Z34	X35	Y35	Z35	X36	Y36	Z36	X37	Y37	Z37	X38	Y38	Z38	X39	Y39	Z39	X40	Y40	Z40	X41	Y41	Z41	X42	Y42	Z42	X43	Y43	Z43	X44	Y44	Z44	X45	Y45	Z45	X46	Y46	Z46	X47	Y47	Z47	X48	Y48	Z48	X49	Y49	Z49	X50	Y50	Z50	X51	Y51	Z51	X52	Y52	Z52	X53	Y53	Z53	X54	Y54	Z54	X55	Y55	Z55	X56	Y56	Z56	X57	Y57	Z57	X58	Y58	Z58	X59	Y59	Z59	X60	Y60	Z60	X61	Y61	Z61	

1	0	-260.0673522949219	1694.923461914063	-775.3679199218752	-395.5808410644532	1671.796142578125	-799.823181152344	-419.2149963378907	1652.996337890625	-666.2772827148439	-457.1499328613282	1545.022338867188	-731.9933471679689	-484.2143554687501	1205.125854492188	-742.9209594726564	-330.8624267578126	1465.816528320313	-735.9418334960939	-361.7503356933594	1505.80859375	-886.5996093750002	-283.5487670898438	1414.288818359375	-976.1316528320315	-239.9964447021485	1432.970092773438	-957.223815917969	-223.6291046142579	1381.040283203125	-985.5964355468752	-123.0833511352539	1346.810424804688	-990.509948730469	-130.5293579101563	1294.785522460938	-942.067321777344	140.6529541015625	1351.223266601563	-888.651794433594	141.0192260742188	1345.0947265625	-962.8992919921877	223.3024597167969	1351.457153320313	-885.1232910156252	-346.1588439941407	1489.960327148438	-583.1974487304689	-259.3168945312501	1369.945556640625	-494.0962219238282	-217.6703033447266	1389.3583984375	-508.8032836914064	-199.4316406250001	1335.732421875	-489.622528076172	-110.3713989257813	1309.571044921875	-490.215057373047	-121.1978302001953	1257.464599609375	-554.0685424804689	151.7454681396485	1323.279296875	-540.6416625976564	230.4742126464844	1331.72998046875	-622.7307739257814	-318.5805969238282	1068.285522460938	-893.1964111328127	-297.8370666503907	1035.318725585938	-641.7624511718751	-494.3252258300782	1101.556030273438	-745.6364135742189	-508.1700744628907	1075.550537109375	-776.158386230469	-506.1148986816407	1067.350463867188	-720.4947509765626	-291.8396301269532	757.5485839843751	-956.4302978515627	-240.8287048339844	692.4263305664064	-938.6568603515627	-204.8038482666016	705.1785278320314	-906.8027343750002	-255.5097351074219	635.2138671875001	-934.0892333984377	-243.7005310058594	574.7880859375001	-934.7454833984377	-247.5696716308594	564.9275512695314	-795.7906494140627	-148.3101196289063	393.4187927246095	-888.7615356445315	-195.9735717773438	340.4326171875001	-940.011413574219	-154.3536071777344	343.8217163085938	-921.188659667969	-132.695297241211	267.6134033203126	-888.8378906250002	-165.4582824707032	137.8757629394532	-913.536315917969	-157.4153442382813	163.6078033447266	-829.7203369140627	-216.2077026367188	97.32276916503909	-868.993103027344	4.600951194763184	128.3734283447266	-834.3208618164065	5.904813289642335	128.782211303711	-873.2418212890627	-26.25659751892091	99.6729431152344	-926.1402587890627	-385.8074645996095	797.726989746094	-588.2960815429689	-348.4961242675782	742.8368530273439	-589.4399414062501	-315.1087341308594	745.3211059570314	-592.3987426757814	-372.8474731445313	666.5697631835939	-616.4404907226564	-349.7135620117188	518.6567382812501	-640.3322143554689	-339.5323181152344	515.2640991210939	-770.9296875000002	-300.4832153320313	362.2547302246094	-735.9289550781251	-327.2814331054688	276.0618591308594	-676.6271362304689	-300.1097106933594	277.3958129882813	-716.9596557617189	-316.9670104980469	234.9260864257813	-753.2192382812501	-365.0799865722657	97.11170196533206	-712.5398559570314	-356.6851196289063	131.0216979980469	-796.9917602539065	-433.5593261718751	81.51077270507814	-772.5089111328127	-209.4626922607422	58.06743240356447	-787.2207031250002	-208.8687438964844	52.29167938232423	-747.0675659179689	-251.9073944091797	32.67948913574219	-699.0963745117189	nan	nan	nan	
2	0.005	-259.9707336425782	1694.880126953125	-775.0295410156252	-395.6082458496095	1671.838989257813	-799.4732055664065	-419.1119995117189	1653.014282226563	-666.0011596679689	-457.1721496582032	1545.07568359375	-731.6531982421876	-484.3421325683595	1205.206787109375	-742.6243896484376	-330.9696044921876	1465.825073242188	-735.7277221679689	-361.9402160644532	1505.882690429688	-886.3314208984377	-283.7881774902344	1414.403076171875	-975.9086914062502	-240.1685180664063	1433.097900390625	-956.972351074219	-223.6372833251954	1381.223876953125	-985.2929687500002	-123.2253341674805	1346.967651367188	-990.3399047851565	-130.6795043945313	1294.897338867188	-941.8552856445315	140.5308227539063	1351.343505859375	-888.6508789062502	140.8312072753907	1345.2216796875	-962.8674316406252	223.9448547363282	1351.566040039063	-885.3396606445315	-346.1050415039063	1489.950439453125	-582.9256591796876	-259.1939086914063	1369.94189453125	-493.849334716797	-217.5854797363282	1389.370361328125	-508.5699157714845	-199.3074188232422	1335.754028320313	-489.4535217285157	-110.2515640258789	1309.592895507813	-490.0896301269532	-121.1032485961914	1257.5302734375	-553.8870849609376	151.8276977539063	1323.326049804688	-540.5262451171876	230.533187866211	1331.804321289063	-622.6226806640626	-318.8303222656251	1068.480590820313	-893.0889282226565	-297.9131164550782	1035.337524414063	-641.7034912109376	-494.4750061035157	1101.584838867188	-745.3289184570314	-508.3179321289064	1075.560302734375	-775.879333496094	-506.258270263672	1067.379760742188	-720.2241210937501	-291.8772888183594	757.9443969726564	-956.3980712890627	-240.7397918701172	692.8471679687501	-938.7105712890627	-204.5491027832032	705.7692871093751	-907.058532714844	-255.1469879150391	635.6008300781251	-934.087097167969	-243.1398010253907	575.2795410156251	-934.7261352539065	-246.2283477783204	565.4385986328126	-795.6257934570315	-145.8756866455078	394.6971740722657	-889.075378417969	-193.8978576660157	341.1356506347657	-940.0217285156252	-151.8390197753907	344.8604736328126	-921.0480957031252	-129.4658355712891	268.9888000488282	-889.036560058594	-160.9918670654297	138.8318176269532	-913.351989746094	-153.0596771240235	164.9335174560547	-829.590026855469	-211.3209686279297	97.90034484863284	-868.567077636719	9.268107414245607	131.052978515625	-834.7125244140627	10.58674430847168	131.4192199707032	-873.5598754882815	-21.55931091308594	101.8799667358399	-926.2832641601565	-385.9197082519532	797.7644653320315	-588.1031494140626	-348.6393127441407	742.8870849609376	-589.2196044921876	-315.1881103515626	745.3419799804689	-592.1834106445314	-372.9969177246094	666.5994262695314	-616.2489013671876	-349.8536682128907	518.6740722656251	-640.1229248046876	-339.6277465820313	515.3216552734376	-770.7365722656252	-300.6130981445313	362.2163391113282	-735.6807861328126	-327.4351196289063	276.0673522949219	-676.4055786132814	-300.2349243164063	277.3835754394532	-716.7138061523439	-316.9673156738282	234.9637603759766	-752.9376831054689	-365.1150512695313	97.07645416259768	-712.4272460937501	-356.6940307617188	131.037826538086	-796.818542480469	-433.545379638672	81.5197219848633	-772.4439697265627	-209.4639129638672	58.1317710876465	-787.1701660156252	-208.8676757812501	52.30092239379884	-746.9689941406251	-251.9127044677735	32.62105941772462	-699.0648803710939	nan	nan	nan	
3	0.01	-259.9757385253907	1694.775024414063	-774.7830200195315	-395.6004638671876	1671.8681640625	-799.189147949219	-419.1661071777345	1653.22998046875	-665.8457641601564	-457.1902160644532	1545.136840820313	-731.2927856445314	-484.5281982421876	1205.240356445313	-742.3376464843751	-331.0275573730469	1465.825317382813	-735.5050659179689	-362.0607910156251	1505.971557617188	-886.0943603515627	-283.9335021972657	1414.567260742188	-975.654479980469	-240.3237609863282	1433.208984375	-956.7315063476565	-223.7369232177735	1381.364135742188	-985.0880126953127	-123.4131240844727	1347.150390625	-990.2050781250002	-130.8191375732422	1295.021484375	-941.6848144531252	140.4273223876953	1351.400634765625	-888.6588134765627	140.740219116211	1345.367431640625	-962.8715820312502	223.8028717041016	1351.646606445313	-885.3699340820315	-346.0917358398438	1489.926513671875	-582.5468139648439	-259.0774536132813	1370.2529296875	-494.162322998047	-217.4954833984376	1389.357177734375	-508.3393554687501	-199.1857147216797	1335.785888671875	-489.1942443847657	-110.1954040527344	1309.633544921875	-489.9483337402345	-120.9967498779297	1257.5556640625	-553.7956542968751	151.9448852539063	1323.414794921875	-540.3769531250001	230.6262664794922	1331.904907226563	-622.5502319335939	-319.0840454101563	1068.608764648438	-892.9210205078127	-298.0307006835938	1035.312255859375	-641.5869750976564	-494.6495666503907	1101.620239257813	-745.0384521484376	-508.273162841797	1075.5693359375	-775.7322998046877	-506.337127685547	1067.403442382813	-719.9763183593751	-291.8987731933594	758.2581176757814	-956.352722167969	-240.5537872314454	693.2936401367189	-938.8131103515627	-204.2745361328126	706.3823242187501	-907.3677978515627	-254.7602996826172	636.0403442382814	-933.9964599609377	-242.5146636962891	575.7583007812501	-934.6948852539065	-245.0859069824219	565.9164428710939	-795.6666259765627	-143.9610900878907	395.750701904297	-889.0917968750002	-191.4174346923828	341.9145202636719	-939.941833496094	-149.2909240722657	346.1041564941407	-921.1832275390627	-126.0857696533203	270.4480895996094	-888.8623657226565	-156.5653991699219	139.8841400146485	-913.114685058594	-148.6636657714844	166.0543975830078	-829.4927978515627	-206.4391326904297	98.55267333984378	-868.1243286132815	13.890531539917	133.7974853515625	-834.9544067382815	15.0919942855835	134.129379272461	-873.803161621094	-16.91272354125977	104.2279357910157	-926.370544433594	-386.0511779785157	797.7788696289065	-587.8850097656251	-348.7706298828126	742.9295654296876	-589.0051269531251	-315.3456115722657	745.4062500000001	-592.0048828125001	-373.1324157714844	666.6342163085939	-616.0603027343751	-350.0562438964844	518.7249755859376	-639.9086303710939	-339.6673889160157	515.3382568359376	-770.4964599609377	-301.3267822265626	362.2099914550782	-735.7514038085939	-327.5929260253907	276.0729064941407	-676.1651000976564	-300.3298339843751	277.4078674316407	-716.4663085937501	-317.0786437988282	234.9728546142579	-752.7557373046876	-365.1282653808594	97.00672912597659	-712.3010864257814	-356.6478881835938	131.0752258300782	-796.666687011719	-433.5833435058595	81.51517486572267	-772.3815917968752	-209.4375152587891	58.22340011596681	-787.0963134765627	-208.9155578613282	52.30044174194337	-746.9436645507814	-251.9472045898438	32.59371948242188	-699.0214843750001	nan	nan	nan	
4	0.015	-260.0307922363282	1694.688842773438	-774.573425292969	-395.5399780273439	1671.90283203125	-798.8765258789065	-419.1215820312501	1653.230712890625	-665.5059204101564	-457.1813049316407	1545.16650390625	-730.9075317382814	-484.6701660156251	1205.28515625	-742.0598754882814	-331.0819702148438	1465.877685546875	-735.2536010742189	-362.1695556640626	1506.052368164063	-885.771911621094	-284.1011962890626	1414.730590820313	-975.4447021484377	-240.5477142333985	1433.356811523438	-956.5303344726565	-223.9593505859376	1381.548583984375	-984.8701171875002	-123.6292877197266	1347.307861328125	-990.0614013671877	-130.972885131836	1295.147338867188	-941.5432128906252	140.307357788086	1351.544677734375	-888.6417236328127	140.5510864257813	1345.50146484375	-962.9002685546877	223.7285919189454	1351.736938476563	-885.3785400390627	-346.0315246582032	1489.91552734375	-582.2423706054689	-259.0509948730469	1369.911987304688	-493.4243469238282	-217.4465637207032	1389.3701171875	-508.0626220703126	-199.0912017822266	1335.7841796875	-489.0259399414064	-110.1137924194336	1309.650756835938	-489.7832031250001	-120.9432449340821	1257.598754882813	-553.6262817382814	152.0326538085938	1323.486450195313	-540.2446289062501	230.6907196044922	1331.976684570313	-622.4451904296876	-319.3890686035157	1068.748779296875	-892.7374267578127	-298.1073608398438	1035.3056640625	-641.5256347656251	-494.8690185546876	1101.6259765625	-744.7623901367189	-508.4552307128907	1075.599365234375	-775.4862060546877	-506.4935607910157	1067.410888671875	-719.7066650390626	-291.9308166503907	758.5136718750001	-956.3668212890627	-240.3010864257813	693.7994995117189	-938.9299316406252	-203.9817657470704	707.0328979492189	-907.5782470703127	-254.4190673828126	636.4927978515626	-933.9135742187502	-241.9012298583985	576.2874145507814	-934.5959472656252	-243.8886260986329	566.4402465820314	-795.7107543945315	-141.8086700439453	397.028778076172	-889.260437011719	-188.8109741210938	342.6847534179688	-939.8899536132815	-146.7986450195313	347.2390136718751	-921.1506347656252	-122.8777542114258	271.7744445800782	-888.9644165039065	-152.3268585205078	140.9789123535157	-912.8408203125002	-144.2389831542969	167.3767242431641	-829.2959594726565	-201.5597229003907	99.25400543212893	-867.649841308594	19.07963180541993	136.3192291259766	-835.8365478515627	18.96824645996094	137.0363159179688	-873.662292480469	-12.16673088073731	106.6591415405274	-926.631530761719	-386.1591796875001	797.8489379882815	-587.7083129882814	-348.9234313964844	742.9591064453126	-588.8212890625001	-315.4488830566407	745.4364624023439	-591.7901611328126	-373.2660827636719	666.6560668945314	-615.8524169921876	-350.2343139648438	518.7135009765626	-639.7211303710939	-339.7453613281251	515.3146362304689	-770.1934204101565	-301.3165283203126	362.2131347656251	-735.4544067382814	-327.7189025878907	276.0707702636719	-675.9683227539064	-300.5512390136719	277.3658447265626	-716.5671997070314	-317.1192321777344	235.032699584961	-752.4895019531251	-365.1824035644532	96.93538665771487	-712.2011108398439	-356.6288452148438	131.1229248046875	-796.5137939453127	-433.5985412597657	81.52136993408205	-772.3157958984377	-209.4561309814454	58.32368469238283	-787.0303955078127	-208.9204711914063	52.34020996093751	-746.8391723632814	-251.9293975830079	32.55180358886719	-698.9732666015626	nan	nan	nan	
